<svg id="Layer_1" data-name="Layer 1" xmlns="http://www.w3.org/2000/svg" viewBox="0 0 234.35 239.29"><defs><style>.cls-1{fill:#fade5d;}.cls-2{fill:#d30b0b;}.cls-3{fill:#610477;}.cls-4{fill:none;}.cls-5{fill:#96dbf4;}.cls-6{fill:#007c37;}</style></defs><ellipse class="cls-1" cx="120.08" cy="119.9" rx="95.52" ry="97.15"/><path class="cls-2" d="M37.41,119.68c-2.19.1-4.69.17-6.15.2v.05c2.46.35,6.83.88,11,1.55l.1,2.12-10.89,2.31V126c1.5-.14,4.19-.32,6.41-.42l4.55-.21.1,2.15-12.84.58-.16-3.51c3.52-.85,7.08-1.61,8.94-2v0c-1.76-.19-5.66-.84-9.09-1.37l-.15-3.43,12.84-.58.1,2.26Z"/><path class="cls-2" d="M36.49,106.7c4.69.45,6.6,2,6.31,5-.27,2.82-2.41,4-7.14,3.54s-6.33-2.22-6.07-4.91C29.86,107.44,32.05,106.28,36.49,106.7Zm-.63,6.1c3,.29,4.89,0,5-1.38s-1.49-2-4.66-2.32c-3-.29-4.56,0-4.7,1.43S33,112.53,35.86,112.8Z"/><path class="cls-2" d="M33,102.16l-.58,2.75-2-.42L32.1,96.7l2,.41-.57,2.75,10.6,2.24-.49,2.3Z"/><path class="cls-2" d="M32.74,94.36l.75-2.23,4.82,1.63,1-3-4.81-1.63.75-2.23L47.44,91l-.75,2.23L41.21,91.4l-1,3,5.47,1.85-.75,2.23Z"/><path class="cls-2" d="M45.9,80.88l-1.83,3.8,3.37,1.62L49.49,82l1.66,1.12-2.94,6.09L36.63,83.67l2.92-6.07,1.82.87-1.92,4,2.82,1.36L44.1,80Z"/><path class="cls-2" d="M48.42,77.08,53.06,80l-1.25,2L40.93,75.14l2.14-3.41c1.27-2,3-2.52,5-1.3a2.88,2.88,0,0,1,1.57,3c.94-.61,1.91-.57,3.52.44l.43.27a14.12,14.12,0,0,0,2.38,1.28l-1.21,1.93A10.37,10.37,0,0,1,52.3,76.1l-.4-.25c-1.45-.92-2.16-.88-2.95.38Zm-1.58-1,.58-.94c.76-1.2.55-2-.55-2.68a1.55,1.55,0,0,0-2.41.55l-.71,1.13Z"/><path class="cls-2" d="M59.35,61.09c3.53,3.11,4.2,5.44,2.2,7.71s-4.29,1.83-7.86-1.32-3.82-5.5-2-7.54S56,58.14,59.35,61.09Zm-4.08,4.57c2.29,2,4,2.86,4.87,1.82s0-2.51-2.41-4.61-3.7-2.67-4.64-1.6S53.12,63.77,55.27,65.66Z"/><path class="cls-2" d="M56.69,54.88l5-4.55L63,51.82l-3.26,3L62,57.24l3.08-2.8,1.33,1.47-3.07,2.8,3.73,4.11-1.73,1.57Z"/><path class="cls-2" d="M66.78,46.31l2-1.33,2.85,4.21,2.62-1.77-2.85-4.21,2-1.32,7.21,10.64-2,1.32-3.24-4.78L72.7,50.85l3.24,4.78L74,57Z"/><path class="cls-2" d="M86.4,42.08c2.14,4.19,1.9,6.61-.8,8-2.52,1.29-4.66.11-6.82-4.13s-1.52-6.53.89-7.75S84.38,38.1,86.4,42.08Zm-5.48,2.74c1.38,2.72,2.63,4.12,3.86,3.5s.9-2.35-.55-5.18c-1.35-2.66-2.45-3.85-3.72-3.2S79.62,42.27,80.92,44.82Z"/><path class="cls-2" d="M86.31,35.28,90,33.93a3.53,3.53,0,0,1,4.88,2.3c.85,2.33-.09,4.08-2.44,4.93l-1.33.49,1.79,4.91-2.22.8Zm4.19,4.63,1.08-.39c1.22-.45,1.55-1.24,1.09-2.52a1.67,1.67,0,0,0-2.31-1.2l-1.2.43Z"/><path class="cls-2" d="M104.14,37.36l-4.1,1,.87,3.63,4.6-1.11.18,2-6.58,1.57-3-12.5,6.55-1.57.47,2-4.29,1,.72,3,4.11-1Z"/><path class="cls-2" d="M109.6,29.33l6.74-.49.15,2-4.41.32.24,3.3,4.14-.3.15,2-4.15.3.4,5.54-2.34.17Z"/><path class="cls-2" d="M126.89,35.5c-.21,4.69-1.6,6.68-4.63,6.55-2.82-.13-4.11-2.2-3.9-7s1.89-6.43,4.6-6.31C125.82,28.91,127.09,31,126.89,35.5Zm-6.12-.32c-.13,3,.26,4.88,1.64,4.94s1.93-1.6,2.07-4.77c.14-3-.24-4.56-1.66-4.62S120.9,32.32,120.77,35.18Z"/><path class="cls-2" d="M132.35,29.86l-1.42,8.73c-.17,1-.11,2.32,1.32,2.55s1.85-.77,2-2l1.43-8.74,2.32.38-1.43,8.78c-.37,2.28-1.58,4-4.71,3.47s-3.7-2.39-3.31-4.78L130,29.48Z"/><path class="cls-2" d="M137.63,43.85l3.56-12.35,2.56.74c.65,7.58.77,9,.75,9.67h0c.32-1.52.84-3.34,1.42-5.36l1-3.41,2,.59-3.57,12.35-2.46-.72c-.6-8-.7-9.5-.7-10.11h0c-.34,1.55-.86,3.37-1.5,5.58l-1,3.6Z"/><path class="cls-2" d="M152.19,34.9l3.15,1.34c3.11,1.32,3.49,3.78,1.9,7.51-1.69,4-3.77,5.66-7.1,4.25l-3-1.27Zm-2.11,11,.77.33c1.7.72,2.81-.28,4.15-3.46,1.16-2.72,1.15-4.14-.59-4.88l-.79-.33Z"/><path class="cls-2" d="M159.15,48.71,157,51.2,154.94,50l9-9.68,2.66,1.51-3.68,12.69-2.14-1.21,1-3.14Zm3.27-.44c.79-2.39,1.33-4.14,1.76-5.31l-.05,0c-.72,1-2,2.42-3.63,4.25Z"/><path class="cls-2" d="M170.43,46.69l-2.3-1.6,1.15-1.66L175.82,48l-1.15,1.65L172.36,48l-6.19,8.89-1.93-1.34Z"/><path class="cls-2" d="M179.19,50.78l-8.13,9.95-1.83-1.49,8.14-10Z"/><path class="cls-2" d="M183,63c-3.3,3.35-5.67,3.89-7.82,1.76s-1.58-4.39,1.76-7.78,5.71-3.5,7.64-1.6S186.12,59.84,183,63Zm-4.33-4.34c-2.14,2.17-3.08,3.8-2.1,4.77s2.51.11,4.74-2.16c2.1-2.12,2.88-3.54,1.86-4.54S180.67,56.64,178.66,58.68Z"/><path class="cls-2" d="M179.32,68.74,189.55,61l1.62,2.12c-4,6.47-4.78,7.7-5.18,8.21v0c1.16-1,2.66-2.18,4.34-3.45l2.82-2.15,1.27,1.67L184.2,75.17l-1.55-2c4.33-6.82,5.12-8,5.48-8.54h0c-1.2,1-2.7,2.18-4.54,3.58l-3,2.27Z"/><path class="cls-2" d="M199.49,75.89l-7.9,4c-.94.48-1.93,1.28-1.28,2.57s1.7,1,2.8.49l7.92-4,1.06,2.11-8,4c-2.06,1-4.15,1.06-5.58-1.78s-.23-4.39,1.93-5.48l7.94-4Z"/><path class="cls-2" d="M193.86,95.87l-.59-1.7a10,10,0,0,1,1-.46,2.72,2.72,0,0,1-2.1-2c-.9-2.6,1-4.32,5-5.69,4.43-1.54,6.87-.68,7.8,2a3.54,3.54,0,0,1-2.3,4.81l-.76-2.19c.48-.21,1.65-.74,1.2-2s-2.51-1.18-5.14-.27c-2.83,1-4.26,1.87-3.77,3.28.41,1.18,1.42,1.23,3.2.61l.68-.24-.58-1.67,1.86-.65,1.35,3.88Z"/><path class="cls-2" d="M197.88,98.88l-3.3,0-.48-2.3,13.21.34.62,3-12,5.64-.51-2.41,3-1.31Zm2.5,2.16c2.3-1,4-1.74,5.14-2.19v-.06c-1.19.09-3.17.08-5.59.09Z"/><path class="cls-2" d="M196,106.29l12.83-1,.2,2.66c-6.87,3.25-8.19,3.88-8.8,4.08v0c1.53-.23,3.42-.38,5.52-.54l3.54-.27.16,2.1-12.82,1-.2-2.56c7.34-3.37,8.66-4,9.24-4.19v0c-1.58.22-3.47.37-5.76.54l-3.74.29Z"/><path class="cls-2" d="M209.5,117l-.2,3.41c-.19,3.38-2.38,4.56-6.42,4.33-4.33-.25-6.61-1.64-6.4-5.25l.19-3.24Zm-11.09,1.73,0,.84c-.11,1.84,1.21,2.55,4.65,2.75,3,.17,4.28-.32,4.39-2.21l0-.85Z"/><path class="cls-2" d="M198.81,128.15l-3.06-1.23.43-2.31,12.08,5.32-.55,3-13.2.69.45-2.42,3.3-.06Zm1.49,2.94c2.51,0,4.35-.09,5.59-.07V131c-1.13-.37-3-1.13-5.2-2Z"/><path class="cls-3" d="M59.15,181.1c-3.44,3.21-5.83,3.64-7.91,1.41-1.94-2.08-1.41-4.47,2.07-7.72s5.86-3.25,7.72-1.26S62.42,178.06,59.15,181.1ZM55,176.56c-2.23,2.07-3.23,3.66-2.29,4.67s2.51.23,4.84-1.93,3-3.43,2-4.48S57.08,174.6,55,176.56Z"/><path class="cls-3" d="M66.55,179.25l-5.87,6.62c-.7.78-1.33,1.9-.24,2.86s2,.35,2.8-.57l5.87-6.63,1.78,1.58L65,189.76c-1.53,1.72-3.47,2.51-5.86.39s-1.87-4-.26-5.82l5.9-6.65Z"/><path class="cls-3" d="M69.74,191.46l-3.2,4.45-1.91-1.37,7.5-10.44,3.29,2.36c2,1.41,2.35,3.19,1,5.06a2.89,2.89,0,0,1-3.1,1.37c.55,1,.45,2-.65,3.49l-.3.41a14.08,14.08,0,0,0-1.43,2.3l-1.86-1.34a10.37,10.37,0,0,1,1.4-2.34l.27-.38c1-1.39,1-2.1-.2-3ZM70.83,190l.9.65c1.16.83,2,.67,2.72-.38a1.56,1.56,0,0,0-.4-2.45L73,187Z"/><path class="cls-3" d="M82.48,191.07l2.12,1.05-2.25,4.55,2.86,1.41,2.25-4.55,2.13,1.05-5.7,11.52-2.13-1,2.56-5.18-2.85-1.41-2.56,5.18-2.13-1Z"/><path class="cls-3" d="M96.82,203.86c-1.53,4.45-3.44,6-6.32,5-2.69-.92-3.35-3.28-1.8-7.78s3.64-5.63,6.22-4.75S98.27,199.64,96.82,203.86ZM91,201.81c-1,2.89-1.13,4.76.18,5.21s2.32-1,3.36-4c1-2.82,1-4.44-.3-4.9S91.93,199.1,91,201.81Z"/><path class="cls-3" d="M100.14,198.18,104,199a3.54,3.54,0,0,1,2.94,4.54c-.52,2.43-2.24,3.41-4.71,2.89l-1.39-.3-1.09,5.11-2.32-.49Zm1.11,6.14,1.13.24c1.29.28,2-.22,2.27-1.55a1.67,1.67,0,0,0-1.33-2.25l-1.25-.27Z"/><path class="cls-3" d="M114.55,207.67l-4.22-.44L110,211l4.74.49-.5,1.94-6.77-.7,1.32-12.79,6.75.7-.21,2-4.42-.46-.32,3.11,4.22.44Z"/><path class="cls-3" d="M128.69,206.62c.25,4.7-1,6.81-4,7-2.85.15-4.34-1.79-4.6-6.54s1.27-6.58,4-6.72C127,200.18,128.45,202.17,128.69,206.62Zm-6.16.28c.16,3,.73,4.83,2.12,4.76s1.78-1.78,1.61-4.95c-.16-3-.69-4.51-2.12-4.44S122.37,204,122.53,206.9Z"/><path class="cls-3" d="M131.84,199.73l1.61,8.69c.19,1,.68,2.21,2.11,2s1.49-1.35,1.27-2.56l-1.61-8.71,2.33-.43,1.61,8.74c.42,2.27-.15,4.28-3.29,4.86s-4.31-1-4.75-3.37l-1.61-8.74Z"/><path class="cls-3" d="M143.47,204.58l1.68,5.22-2.24.72L139,198.28l3.86-1.23c2.28-.74,3.95,0,4.65,2.19a2.9,2.9,0,0,1-.73,3.31c1.12.13,1.84.78,2.42,2.59l.15.49a14.19,14.19,0,0,0,1,2.51l-2.18.7a10.07,10.07,0,0,1-1-2.52l-.14-.44c-.53-1.64-1.09-2.07-2.51-1.61Zm-.57-1.77,1.06-.34c1.36-.44,1.71-1.18,1.31-2.42a1.56,1.56,0,0,0-2.21-1.12l-1.28.41Z"/><path class="cls-3" d="M150.61,194l6-3.2.95,1.78-3.93,2.09,1.56,2.92,3.69-2,.93,1.74-3.69,2,2.61,4.9-2.07,1.11Z"/><path class="cls-3" d="M159.31,189l5,7.29c.6.86,1.53,1.74,2.73.92s.81-1.84.11-2.86l-5-7.3,2-1.34,5,7.33c1.31,1.9,1.61,4-1,5.78s-4.35.85-5.72-1.15l-5-7.33Z"/><path class="cls-3" d="M168.06,185l-2.13,1.85-1.32-1.52,6.06-5.25,1.32,1.52-2.14,1.85,7.1,8.2-1.79,1.55Z"/><path class="cls-3" d="M172.73,177.9l6.5,6c.78.72,1.88,1.37,2.86.29s.39-2-.52-2.8l-6.52-6,1.61-1.74,6.54,6c1.7,1.56,2.45,3.51.29,5.86s-4.05,1.79-5.83.15l-6.54-6Z"/><path class="cls-3" d="M185,174.79l4.46,3.19-1.37,1.91-10.46-7.47,2.36-3.29c1.4-2,3.18-2.36,5-1a2.89,2.89,0,0,1,1.39,3.1c1-.56,1.94-.46,3.49.64l.42.3a14.15,14.15,0,0,0,2.29,1.42l-1.33,1.86a10.26,10.26,0,0,1-2.34-1.39l-.38-.27c-1.4-1-2.11-1-3,.21Zm-1.52-1.08.65-.91c.83-1.16.67-2-.39-2.72a1.56,1.56,0,0,0-2.44.41l-.78,1.1Z"/><path class="cls-3" d="M192.2,162.67l-2,3.72,3.26,1.8,2.31-4.16,1.59,1.21-3.3,6L182.77,165l3.28-5.93,1.76,1-2.15,3.88,2.74,1.52,2-3.71Z"/><path class="cls-4" d="M178,81.73,176.64,84a67,67,0,0,1,7.44,52.05,20.32,20.32,0,0,1,2.32.62,69.11,69.11,0,0,0-8.42-55Z"/><path class="cls-4" d="M119.4,49.43A69.25,69.25,0,0,0,65.18,75.62a21.55,21.55,0,0,1,2.3.91,66.94,66.94,0,0,1,78.85-19.05l1-2.16A68.78,68.78,0,0,0,119.4,49.43Z"/><path class="cls-4" d="M61,86a20.15,20.15,0,0,1-2-1.36,69.27,69.27,0,0,0-8.19,44.79l2.31-.84A66.82,66.82,0,0,1,61,86Z"/><path class="cls-4" d="M119.4,185.73a66.83,66.83,0,0,1-52.65-25.62c-.22.15-.44.28-.66.44-.43.3-.86.62-1.28.93A69.28,69.28,0,0,0,182.6,147.3a19.55,19.55,0,0,1-2-1.33A66.93,66.93,0,0,1,119.4,185.73Z"/><path class="cls-5" d="M67.48,76.53A19.79,19.79,0,0,1,77.62,87.87,19.8,19.8,0,0,1,61,86a66.82,66.82,0,0,0-7.84,42.59l3.14-1.14c14.88-5.4,25.64-9.31,29.73-10.58l.11,0a15.57,15.57,0,0,0,7.43-4.49,6.89,6.89,0,0,0,.89-1.25c.24-.4.56-.94,1.15-1.82,1.94-2.89,6.47-9.66,11.92-10.78l.24-.05.16,0a5.7,5.7,0,0,0,.88-.24,4.79,4.79,0,0,0,1-.47,8,8,0,0,0,1.69-1.45,9.73,9.73,0,0,1,1.7-1.5,4.17,4.17,0,0,1,2.77-.65,30.44,30.44,0,0,0,3.78-.21,29.37,29.37,0,0,0,7.3-1.59,12.37,12.37,0,0,0,4.77-2.79,8.21,8.21,0,0,0,1.67-2.91c1-2.9,5.12-12.22,12.83-29.14A66.94,66.94,0,0,0,67.48,76.53Z"/><path class="cls-5" d="M176.64,84a168.26,168.26,0,0,0-9.08,17.44,23.16,23.16,0,0,0-1.89,6.49,4.73,4.73,0,0,0,0,.93c.05.37.12.72.2,1.08,0,.2.09.41.14.62a10.25,10.25,0,0,1,.27,4.89,9.38,9.38,0,0,1-1.49,3.64,6,6,0,0,1-1.64,1.64,2.68,2.68,0,0,0-.81.8,3,3,0,0,0-.35,2.2,4.52,4.52,0,0,1-.59,3.22,4.31,4.31,0,0,1-1.92,1.56,4.81,4.81,0,0,0-1.86,1.46,7.68,7.68,0,0,0-1.18,2.13,6.39,6.39,0,0,0-.35,2.94,4.38,4.38,0,0,1-.57,3,2.91,2.91,0,0,1-1.47,1.17,8.87,8.87,0,0,0-1.62.89l.07.09a12,12,0,0,1-1.27.8,15.45,15.45,0,0,0-2.45,2.37,11.08,11.08,0,0,0-.88,1.29c-.13.22-.29.47-.5.8-1.88,3-2.81,4.44-3.91,5.22-2.11,1.49-4.7,1.1-6.08.89l-.35-.05a11.09,11.09,0,0,1-1.35,4,4,4,0,0,1-3.25,2.27h-.2c-1.77-.13-3.11-1.9-3.62-4.48a10.24,10.24,0,0,1-1.3,2.92,4.69,4.69,0,0,1-3.79,2.4h-.26a4.6,4.6,0,0,1-3.66-3,11.81,11.81,0,0,1-1-5.82l0-.18h-.21c-.06.26-.12.52-.19.78a11.66,11.66,0,0,1-2.81,5.19,5,5,0,0,1-3.5,1.7,3.57,3.57,0,0,1-.92-.12,4.6,4.6,0,0,1-3-3.58,9.74,9.74,0,0,1-.29-2.69c-1.32,3-3.5,4.88-5.63,4.88a3.47,3.47,0,0,1-.9-.11,4.61,4.61,0,0,1-3-3.59,9.87,9.87,0,0,1-.29-2.6l-.42,0a67.69,67.69,0,0,0-21,5.34,57.86,57.86,0,0,0-9.76,5.23A66.93,66.93,0,0,0,180.58,146a19.74,19.74,0,0,1-6.76-9.27,19.8,19.8,0,0,1,10.26-.62A67,67,0,0,0,176.64,84Z"/><path d="M179.13,79.82c-.4-.62-.82-1.23-1.24-1.83l-1.12,1.87c-.46.77-.9,1.53-1.34,2.28a175.86,175.86,0,0,0-9.71,18.55c-1.85,4.4-2.09,6.65-2.07,7.76-2.58.59-5.18,1.11-7.76,1.52-7.61,1.24-11.44,1.86-15.72,1.07-1-.19-1.74-.39-2.55-.6a36.29,36.29,0,0,0-5.09-1c-4.33-.55-7-.88-9.18.71-1.65,1.17-2.4,3.12-3.88,7-.48,1.26-.74,2.12-1,2.81a5.75,5.75,0,0,1-1,2.23c-1.74,2.26-3.51,2.76-4.7,2.79-1.57,0-3.49-.65-4-1.86s.65-3.22,1.31-4.24l.2-.31c2.62-4.19,2.67-10.39.12-18.88a9.14,9.14,0,0,0,2.53-2,7.67,7.67,0,0,1,1.34-1.22c.51-.32.69-.32,1.68-.32a33,33,0,0,0,4-.22,32,32,0,0,0,7.77-1.71,14,14,0,0,0,5.57-3.33,10.5,10.5,0,0,0,2.09-3.63c1-2.8,5.05-12.06,12.74-28.92.32-.72.65-1.43,1-2.17l.83-1.82-1.82-.82a71.39,71.39,0,0,0-100.1,65.28A72.06,72.06,0,0,0,49,130.14c.11.67.24,1.34.36,2l1.91-.69,2.29-.83L57,129.35c14.86-5.39,25.59-9.29,29.64-10.55l.12,0a17.55,17.55,0,0,0,8.34-5.08,8.85,8.85,0,0,0,1.1-1.55c.22-.38.53-.89,1.09-1.73,1.65-2.46,6-9,10.67-9.93l.21,0,.38-.08c2.3,7.77,2.33,13.53.06,17.14l-.18.29c-.8,1.23-2.45,3.78-1.48,6.1.86,2,3.5,3.08,5.73,3.08h.16c1.62,0,4-.68,6.24-3.57a7.68,7.68,0,0,0,1.35-2.87c.2-.66.45-1.48.91-2.67,1.34-3.49,2-5.25,3.17-6.08,1.53-1.09,3.49-.89,7.77-.35a33.41,33.41,0,0,1,4.84,1c.8.21,1.63.43,2.69.62,4.62.86,8.56.22,16.4-1,2.57-.42,5.16-.93,7.73-1.52.05.21.1.43.15.63a8.47,8.47,0,0,1,.25,4,7.47,7.47,0,0,1-1.17,2.89,4.18,4.18,0,0,1-1.16,1.16,5.86,5.86,0,0,0-.53.41h0a13.88,13.88,0,0,1-11,1.57l-.34.94-.34.94a13.45,13.45,0,0,0,4.31.64,16.14,16.14,0,0,0,5.9-1.13,7.59,7.59,0,0,0,0,1.45,2.56,2.56,0,0,1-.28,1.92,2.32,2.32,0,0,1-1.13.87,6.7,6.7,0,0,0-2.37,1.81,7.76,7.76,0,0,1-7.25,1.23l-.81,1.83a8.57,8.57,0,0,0,3.21.58,9.61,9.61,0,0,0,3.11-.53,8.35,8.35,0,0,0-.38,3.53,2.54,2.54,0,0,1-.26,1.75c-.15.22-.17.23-.59.41a12.94,12.94,0,0,0-2.76,1.65l-.37.3a7.58,7.58,0,0,1-6.16.56l-.81,1.83a8.55,8.55,0,0,0,3.2.58c.24,0,.5,0,.76,0-.36.47-.58.82-.91,1.34l-.5.81c-1.67,2.64-2.59,4.09-3.36,4.64-1.46,1-3.37.73-4.69.53l-.43-.06c0-3.9-1.54-6.86-3.85-7-1.29-.1-2.52.7-3.46,2.25a10.16,10.16,0,0,0-1,2.39,9.86,9.86,0,0,0-.74-2.34,4.12,4.12,0,0,0-7.7-.56,10.6,10.6,0,0,0-1.44,3.46l-.27,0c.17-3.37-1.08-6.11-3.33-6.71a4.57,4.57,0,0,0-4.42,1.59,10.57,10.57,0,0,0-2.1,3.21,10,10,0,0,0-.3-2.72,4.13,4.13,0,0,0-7.46-2,11.86,11.86,0,0,0-2.81,5.19c-.11.42-.19.85-.26,1.27l-.78.06A69.69,69.69,0,0,0,75.71,153a59.58,59.58,0,0,0-10.18,5.48l-.58.38c-.46.32-.91.66-1.36,1s-1.07.8-1.59,1.22c.4.53.81,1.06,1.22,1.58A71.3,71.3,0,0,0,179.13,79.82Zm-69.31,17.9a4.79,4.79,0,0,1-1,.47,5.7,5.7,0,0,1-.88.24l-.16,0-.24.05c-5.45,1.12-10,7.89-11.92,10.78-.59.88-.91,1.42-1.15,1.82a6.89,6.89,0,0,1-.89,1.25,15.57,15.57,0,0,1-7.43,4.49l-.11,0c-4.09,1.27-14.85,5.18-29.73,10.58l-3.14,1.14-2.31.84a69.45,69.45,0,0,1,68.53-80,68.78,68.78,0,0,1,27.91,5.89l-1,2.16c-7.71,16.92-11.82,26.24-12.83,29.14a8.21,8.21,0,0,1-1.67,2.91,12.37,12.37,0,0,1-4.77,2.79,29.37,29.37,0,0,1-7.3,1.59,30.44,30.44,0,0,1-3.78.21,4.17,4.17,0,0,0-2.77.65,9.73,9.73,0,0,0-1.7,1.5A8,8,0,0,1,109.82,97.72ZM130.46,150a10.72,10.72,0,0,1,.17-1.3,8.61,8.61,0,0,1,1-2.9c.49-.81,1.06-1.29,1.54-1.29h.06c.86.06,1.93,1.91,2,4.75a9.86,9.86,0,0,1,0,1.08c0,.31-.07.61-.11.92a9.06,9.06,0,0,1-1.08,3.27c-.51.85-1.11,1.32-1.6,1.3-.9-.07-2-2.08-2-5.14C130.44,150.42,130.44,150.2,130.46,150Zm-9.76,0c0-.07,0-.13,0-.2a11.37,11.37,0,0,1,.36-2,8.23,8.23,0,0,1,1.07-2.48,2.88,2.88,0,0,1,2.14-1.51h.1c.74,0,1.47.71,2,1.81a8.59,8.59,0,0,1,.7,2.66,11.23,11.23,0,0,1,.06,2v.14h0a9.79,9.79,0,0,1-1.45,4.65,2.83,2.83,0,0,1-2.24,1.51c-.75-.06-1.48-.72-2-1.82A9.66,9.66,0,0,1,120.7,150Zm-10.77-.7c.06-.35.13-.7.22-1s.2-.63.31-.94a9.14,9.14,0,0,1,2-3.36,3.18,3.18,0,0,1,2.11-1.11,1.65,1.65,0,0,1,.38,0c1.14.31,2,2.16,1.84,4.67a10.41,10.41,0,0,1-.29,2c0,.13,0,.26-.09.38a9.68,9.68,0,0,1-2.3,4.3,2.19,2.19,0,0,1-4.11-1.1A9.18,9.18,0,0,1,109.93,149.29Zm-9.77-1.91c0-.22.08-.43.13-.65a9.8,9.8,0,0,1,2.3-4.29,3.2,3.2,0,0,1,2.11-1.11,1.58,1.58,0,0,1,.38,0,2.76,2.76,0,0,1,1.62,2.16,9,9,0,0,1,.09,3.71c-.07.38-.14.77-.25,1.16a7.29,7.29,0,0,1-.26.83c-1.08,3.13-3.16,4.89-4.52,4.52a2.76,2.76,0,0,1-1.62-2.16,8.19,8.19,0,0,1-.24-2.21A11,11,0,0,1,100.16,147.38ZM186.4,136.7A69.3,69.3,0,0,1,64.81,161.48c.42-.31.85-.63,1.28-.93.22-.16.44-.29.66-.44a57.86,57.86,0,0,1,9.76-5.23,67.69,67.69,0,0,1,21-5.34l.42,0a9.87,9.87,0,0,0,.29,2.6,4.61,4.61,0,0,0,3,3.59,3.47,3.47,0,0,0,.9.11c2.13,0,4.31-1.91,5.63-4.88a9.74,9.74,0,0,0,.29,2.69,4.6,4.6,0,0,0,3,3.58,3.57,3.57,0,0,0,.92.12,5,5,0,0,0,3.5-1.7,11.66,11.66,0,0,0,2.81-5.19c.07-.26.13-.52.19-.78h.21l0,.18a11.81,11.81,0,0,0,1,5.82,4.6,4.6,0,0,0,3.66,3h.26a4.69,4.69,0,0,0,3.79-2.4,10.24,10.24,0,0,0,1.3-2.92c.51,2.58,1.85,4.35,3.62,4.48h.2a4,4,0,0,0,3.25-2.27,11.09,11.09,0,0,0,1.35-4l.35.05c1.38.21,4,.6,6.08-.89,1.1-.78,2-2.25,3.91-5.22.21-.33.37-.58.5-.8a11.08,11.08,0,0,1,.88-1.29,15.45,15.45,0,0,1,2.45-2.37,12,12,0,0,0,1.27-.8l-.07-.09a8.87,8.87,0,0,1,1.62-.89,2.91,2.91,0,0,0,1.47-1.17,4.38,4.38,0,0,0,.57-3,6.39,6.39,0,0,1,.35-2.94,7.68,7.68,0,0,1,1.18-2.13,4.81,4.81,0,0,1,1.86-1.46,4.31,4.31,0,0,0,1.92-1.56,4.52,4.52,0,0,0,.59-3.22,3,3,0,0,1,.35-2.2,2.68,2.68,0,0,1,.81-.8,6,6,0,0,0,1.64-1.64,9.38,9.38,0,0,0,1.49-3.64,10.25,10.25,0,0,0-.27-4.89c-.05-.21-.1-.42-.14-.62-.08-.36-.15-.71-.2-1.08a4.73,4.73,0,0,1,0-.93,23.16,23.16,0,0,1,1.89-6.49A168.26,168.26,0,0,1,176.64,84l1.34-2.3a69.11,69.11,0,0,1,8.42,55Z"/><path class="cls-6" d="M51.42,155.32A10.12,10.12,0,0,1,44.26,143,10.12,10.12,0,0,1,51.42,155.32Z"/><path class="cls-6" d="M65.09,148.59a10.13,10.13,0,0,1-12.3,7.16A10.13,10.13,0,0,1,65.09,148.59Z"/><path class="cls-6" d="M40.12,164.28a10.13,10.13,0,0,1,12.3-7.16A10.13,10.13,0,0,1,40.12,164.28Z"/><path class="cls-6" d="M162.23,77.79A10.13,10.13,0,0,1,153,67,10.13,10.13,0,0,1,162.23,77.79Z"/><path class="cls-6" d="M174.49,68.74A10.13,10.13,0,0,1,163.65,78,10.13,10.13,0,0,1,174.49,68.74Z"/><path class="cls-6" d="M152.69,88.6a10.13,10.13,0,0,1,10.84-9.22A10.13,10.13,0,0,1,152.69,88.6Z"/></svg>