<svg xmlns="http://www.w3.org/2000/svg" xmlns:xlink="http://www.w3.org/1999/xlink" width="1080" zoomAndPan="magnify" viewBox="0 0 810 809.999993" height="1080" preserveAspectRatio="xMidYMid meet" version="1.0"><defs><clipPath id="4aa322db99"><path d="M 69.207031 69.207031 L 729.207031 69.207031 L 729.207031 729 L 69.207031 729 Z M 69.207031 69.207031 " clip-rule="nonzero"/></clipPath></defs><g clip-path="url(#4aa322db99)"><path fill="#ffcc00" d="M 399.371094 69.015625 C 581.574219 69.015625 729.335938 216.78125 729.335938 398.980469 C 729.335938 581.226562 581.574219 728.945312 399.371094 728.945312 C 217.128906 728.945312 69.410156 581.226562 69.410156 398.980469 C 69.410156 216.78125 217.128906 69.015625 399.371094 69.015625 " fill-opacity="1" fill-rule="evenodd"/></g><path fill="#000000" d="M 399.371094 97.441406 C 482.636719 97.441406 558.023438 131.191406 612.59375 185.761719 C 667.160156 240.332031 700.914062 315.714844 700.914062 398.980469 C 700.914062 482.246094 667.160156 557.632812 612.59375 612.199219 C 558.023438 666.769531 482.636719 700.523438 399.371094 700.523438 C 316.109375 700.523438 240.722656 666.769531 186.152344 612.199219 C 131.585938 557.632812 97.832031 482.246094 97.832031 398.980469 C 97.832031 315.714844 131.585938 240.332031 186.152344 185.761719 C 240.722656 131.191406 316.109375 97.441406 399.371094 97.441406 Z M 599.429688 198.972656 C 548.230469 147.773438 477.492188 116.117188 399.371094 116.117188 C 321.253906 116.117188 250.515625 147.773438 199.316406 198.972656 C 148.164062 250.167969 116.460938 320.863281 116.460938 398.980469 C 116.460938 477.097656 148.164062 547.839844 199.316406 599.035156 C 250.515625 650.1875 321.253906 681.890625 399.371094 681.890625 C 477.492188 681.890625 548.230469 650.1875 599.429688 599.035156 C 650.582031 547.839844 682.238281 477.097656 682.238281 398.980469 C 682.238281 320.863281 650.582031 250.167969 599.429688 198.972656 " fill-opacity="1" fill-rule="nonzero"/><path fill="#000000" d="M 312.507812 245.023438 C 335.921875 245.023438 354.917969 281.644531 354.917969 326.785156 C 354.917969 371.925781 335.921875 408.546875 312.507812 408.546875 C 289.097656 408.546875 270.148438 371.925781 270.148438 326.785156 C 270.148438 281.644531 289.097656 245.023438 312.507812 245.023438 " fill-opacity="1" fill-rule="evenodd"/><path fill="#000000" d="M 479.359375 245.023438 C 502.769531 245.023438 521.765625 281.644531 521.765625 326.785156 C 521.765625 371.925781 502.769531 408.546875 479.359375 408.546875 C 455.945312 408.546875 436.953125 371.925781 436.953125 326.785156 C 436.953125 281.644531 455.945312 245.023438 479.359375 245.023438 " fill-opacity="1" fill-rule="evenodd"/><path fill="#000000" d="M 603.070312 449.132812 C 591.914062 494.542969 565.949219 534.171875 530.601562 562.597656 C 494.664062 591.429688 449.023438 608.738281 399.371094 608.738281 C 349.722656 608.738281 304.082031 591.429688 268.144531 562.597656 C 232.796875 534.171875 206.832031 494.542969 195.671875 449.132812 C 192.210938 448.265625 188.976562 446.625 186.246094 444.441406 C 181.964844 440.976562 178.867188 436.148438 177.636719 430.59375 C 176.816406 426.722656 179.277344 422.894531 183.148438 422.074219 C 187.019531 421.253906 190.84375 423.714844 191.664062 427.585938 C 192.167969 429.863281 193.441406 431.867188 195.21875 433.28125 C 196.949219 434.648438 199.136719 435.464844 201.550781 435.464844 C 203.964844 435.464844 206.148438 434.648438 207.882812 433.28125 C 209.613281 431.867188 210.886719 429.863281 211.386719 427.585938 C 212.253906 423.714844 216.078125 421.253906 219.953125 422.074219 C 223.824219 422.894531 226.28125 426.722656 225.417969 430.59375 C 224.234375 436.148438 221.136719 441.023438 216.855469 444.441406 C 214.851562 446.035156 212.664062 447.308594 210.25 448.21875 C 220.953125 489.488281 244.820312 525.472656 277.117188 551.4375 C 310.550781 578.265625 353.09375 594.34375 399.371094 594.34375 C 445.652344 594.34375 488.148438 578.265625 521.628906 551.4375 C 553.878906 525.472656 577.792969 489.488281 588.496094 448.21875 C 586.082031 447.308594 583.851562 446.035156 581.890625 444.441406 C 577.609375 441.023438 574.511719 436.148438 573.328125 430.59375 C 572.460938 426.722656 574.921875 422.894531 578.792969 422.074219 C 582.664062 421.253906 586.492188 423.714844 587.3125 427.585938 C 587.8125 429.863281 589.089844 431.867188 590.863281 433.28125 C 592.59375 434.648438 594.78125 435.464844 597.195312 435.464844 C 599.609375 435.464844 601.796875 434.648438 603.527344 433.28125 C 605.257812 431.867188 606.535156 429.863281 607.035156 427.585938 C 607.898438 423.714844 611.726562 421.253906 615.597656 422.074219 C 619.46875 422.894531 621.929688 426.722656 621.0625 430.59375 C 619.878906 436.148438 616.78125 441.023438 612.5 444.441406 C 609.769531 446.625 606.535156 448.265625 603.070312 449.132812 " fill-opacity="1" fill-rule="nonzero"/><path fill="#ffffff" d="M 322.757812 263.699219 C 328.496094 263.699219 333.144531 272.671875 333.144531 283.738281 C 333.144531 294.761719 328.496094 303.734375 322.757812 303.734375 C 317.019531 303.734375 312.371094 294.761719 312.371094 283.738281 C 312.371094 272.671875 317.019531 263.699219 322.757812 263.699219 " fill-opacity="1" fill-rule="evenodd"/><path fill="#ffffff" d="M 492.292969 263.699219 C 498.035156 263.699219 502.679688 272.671875 502.679688 283.738281 C 502.679688 294.761719 498.035156 303.734375 492.292969 303.734375 C 486.554688 303.734375 481.910156 294.761719 481.910156 283.738281 C 481.910156 272.671875 486.554688 263.699219 492.292969 263.699219 " fill-opacity="1" fill-rule="evenodd"/></svg>